<svg xmlns="http://www.w3.org/2000/svg" width="165" height="50" viewBox="0 0 165 50" fill="none"><path d="M67.294 45.474V47H61.162V37.298H62.926V45.474H67.294ZM75.6018 43.332C75.6018 43.9107 75.5178 44.438 75.3498 44.914C75.1818 45.39 74.9438 45.796 74.6358 46.132C74.3278 46.468 73.9545 46.7293 73.5158 46.916C73.0865 47.1027 72.6105 47.196 72.0878 47.196C71.5651 47.196 71.0891 47.1027 70.6598 46.916C70.2305 46.7293 69.8618 46.468 69.5538 46.132C69.2458 45.796 69.0031 45.39 68.8258 44.914C68.6578 44.438 68.5738 43.9107 68.5738 43.332C68.5738 42.7533 68.6578 42.2307 68.8258 41.764C69.0031 41.288 69.2458 40.882 69.5538 40.546C69.8711 40.21 70.2445 39.9533 70.6738 39.776C71.1031 39.5893 71.5745 39.496 72.0878 39.496C72.6011 39.496 73.0725 39.5893 73.5018 39.776C73.9405 39.9533 74.3138 40.21 74.6218 40.546C74.9298 40.882 75.1678 41.288 75.3358 41.764C75.5131 42.2307 75.6018 42.7533 75.6018 43.332ZM73.8658 43.332C73.8658 42.604 73.7071 42.03 73.3898 41.61C73.0818 41.1807 72.6478 40.966 72.0878 40.966C71.5278 40.966 71.0891 41.1807 70.7718 41.61C70.4638 42.03 70.3098 42.604 70.3098 43.332C70.3098 44.0693 70.4638 44.6527 70.7718 45.082C71.0891 45.5113 71.5278 45.726 72.0878 45.726C72.6478 45.726 73.0818 45.5113 73.3898 45.082C73.7071 44.6527 73.8658 44.0693 73.8658 43.332ZM79.237 43.15C79.237 43.8687 79.391 44.396 79.699 44.732C80.0163 45.0587 80.4223 45.222 80.917 45.222C81.1877 45.222 81.4397 45.1847 81.673 45.11C81.9157 45.0353 82.1117 44.9467 82.261 44.844V41.05C82.1397 41.022 81.9903 40.9987 81.813 40.98C81.6357 40.952 81.4117 40.938 81.141 40.938C80.525 40.938 80.0537 41.1433 79.727 41.554C79.4003 41.9553 79.237 42.4873 79.237 43.15ZM83.955 46.258C83.955 47.4247 83.6563 48.2787 83.059 48.82C82.471 49.3613 81.5657 49.632 80.343 49.632C79.895 49.632 79.4563 49.5947 79.027 49.52C78.607 49.4453 78.2243 49.3473 77.879 49.226L78.187 47.784C78.4763 47.9053 78.803 48.0033 79.167 48.078C79.5403 48.1527 79.9417 48.19 80.371 48.19C81.0523 48.19 81.5377 48.05 81.827 47.77C82.1163 47.49 82.261 47.0747 82.261 46.524V46.244C82.093 46.328 81.869 46.412 81.589 46.496C81.3183 46.58 81.0057 46.622 80.651 46.622C80.1843 46.622 79.755 46.5473 79.363 46.398C78.9803 46.2487 78.649 46.0293 78.369 45.74C78.0983 45.4507 77.8837 45.0913 77.725 44.662C77.5757 44.2233 77.501 43.7193 77.501 43.15C77.501 42.618 77.5803 42.128 77.739 41.68C77.907 41.232 78.145 40.8493 78.453 40.532C78.7703 40.2147 79.153 39.9673 79.601 39.79C80.049 39.6127 80.5577 39.524 81.127 39.524C81.6777 39.524 82.2003 39.566 82.695 39.65C83.1897 39.734 83.6097 39.8227 83.955 39.916V46.258ZM88.3781 47H86.6841V39.678H88.3781V47ZM88.5601 37.536C88.5601 37.8533 88.4574 38.1053 88.2521 38.292C88.0468 38.4787 87.8041 38.572 87.5241 38.572C87.2348 38.572 86.9874 38.4787 86.7821 38.292C86.5768 38.1053 86.4741 37.8533 86.4741 37.536C86.4741 37.2093 86.5768 36.9527 86.7821 36.766C86.9874 36.5793 87.2348 36.486 87.5241 36.486C87.8041 36.486 88.0468 36.5793 88.2521 36.766C88.4574 36.9527 88.5601 37.2093 88.5601 37.536ZM92.9332 45.782C93.3812 45.782 93.7079 45.7307 93.9133 45.628C94.1186 45.516 94.2212 45.3293 94.2212 45.068C94.2212 44.8253 94.1092 44.6247 93.8853 44.466C93.6706 44.3073 93.3113 44.1347 92.8072 43.948C92.4992 43.836 92.2146 43.7193 91.9532 43.598C91.7012 43.4673 91.4819 43.318 91.2952 43.15C91.1086 42.982 90.9592 42.7813 90.8472 42.548C90.7446 42.3053 90.6932 42.0113 90.6932 41.666C90.6932 40.994 90.9406 40.4667 91.4352 40.084C91.9299 39.692 92.6019 39.496 93.4512 39.496C93.8806 39.496 94.2912 39.538 94.6832 39.622C95.0753 39.6967 95.3693 39.7713 95.5653 39.846L95.2572 41.218C95.0706 41.134 94.8326 41.0593 94.5432 40.994C94.2539 40.9193 93.9179 40.882 93.5353 40.882C93.1899 40.882 92.9099 40.9427 92.6952 41.064C92.4806 41.176 92.3732 41.3533 92.3732 41.596C92.3732 41.7173 92.3919 41.8247 92.4292 41.918C92.4759 42.0113 92.5506 42.1 92.6532 42.184C92.7559 42.2587 92.8912 42.338 93.0592 42.422C93.2272 42.4967 93.4326 42.576 93.6752 42.66C94.0766 42.8093 94.4173 42.9587 94.6973 43.108C94.9773 43.248 95.2059 43.4113 95.3832 43.598C95.5699 43.7753 95.7053 43.9807 95.7893 44.214C95.8733 44.4473 95.9153 44.7273 95.9153 45.054C95.9153 45.754 95.6539 46.286 95.1312 46.65C94.6179 47.0047 93.8806 47.182 92.9193 47.182C92.2752 47.182 91.7572 47.126 91.3652 47.014C90.9732 46.9113 90.6979 46.8273 90.5392 46.762L90.8332 45.348C91.0852 45.4507 91.3839 45.5487 91.7292 45.642C92.0839 45.7353 92.4852 45.782 92.9332 45.782ZM97.9737 37.746L99.6677 37.466V39.678H102.272V41.092H99.6677V44.074C99.6677 44.662 99.761 45.082 99.9477 45.334C100.134 45.586 100.452 45.712 100.9 45.712C101.208 45.712 101.478 45.6793 101.712 45.614C101.954 45.5487 102.146 45.488 102.286 45.432L102.566 46.776C102.37 46.86 102.113 46.944 101.796 47.028C101.478 47.1213 101.105 47.168 100.676 47.168C100.153 47.168 99.7144 47.098 99.3597 46.958C99.0144 46.818 98.739 46.6173 98.5337 46.356C98.3284 46.0853 98.1837 45.7633 98.0997 45.39C98.0157 45.0073 97.9737 44.5733 97.9737 44.088V37.746ZM106.177 47H104.483V39.678H106.177V47ZM106.359 37.536C106.359 37.8533 106.257 38.1053 106.051 38.292C105.846 38.4787 105.603 38.572 105.323 38.572C105.034 38.572 104.787 38.4787 104.581 38.292C104.376 38.1053 104.273 37.8533 104.273 37.536C104.273 37.2093 104.376 36.9527 104.581 36.766C104.787 36.5793 105.034 36.486 105.323 36.486C105.603 36.486 105.846 36.5793 106.051 36.766C106.257 36.9527 106.359 37.2093 106.359 37.536ZM108.492 43.346C108.492 42.8047 108.576 42.3007 108.744 41.834C108.912 41.358 109.15 40.9473 109.458 40.602C109.776 40.2567 110.158 39.986 110.606 39.79C111.054 39.594 111.558 39.496 112.118 39.496C112.809 39.496 113.462 39.622 114.078 39.874L113.714 41.26C113.518 41.176 113.294 41.106 113.042 41.05C112.8 40.994 112.538 40.966 112.258 40.966C111.596 40.966 111.092 41.176 110.746 41.596C110.401 42.0067 110.228 42.59 110.228 43.346C110.228 44.074 110.392 44.6527 110.718 45.082C111.045 45.502 111.596 45.712 112.37 45.712C112.66 45.712 112.944 45.684 113.224 45.628C113.504 45.572 113.747 45.502 113.952 45.418L114.19 46.818C114.004 46.9113 113.719 46.9953 113.336 47.07C112.963 47.1447 112.576 47.182 112.174 47.182C111.549 47.182 111.003 47.0887 110.536 46.902C110.079 46.706 109.696 46.44 109.388 46.104C109.09 45.7587 108.866 45.3527 108.716 44.886C108.567 44.41 108.492 43.8967 108.492 43.346ZM117.896 45.782C118.344 45.782 118.671 45.7307 118.876 45.628C119.081 45.516 119.184 45.3293 119.184 45.068C119.184 44.8253 119.072 44.6247 118.848 44.466C118.633 44.3073 118.274 44.1347 117.77 43.948C117.462 43.836 117.177 43.7193 116.916 43.598C116.664 43.4673 116.445 43.318 116.258 43.15C116.071 42.982 115.922 42.7813 115.81 42.548C115.707 42.3053 115.656 42.0113 115.656 41.666C115.656 40.994 115.903 40.4667 116.398 40.084C116.893 39.692 117.565 39.496 118.414 39.496C118.843 39.496 119.254 39.538 119.646 39.622C120.038 39.6967 120.332 39.7713 120.528 39.846L120.22 41.218C120.033 41.134 119.795 41.0593 119.506 40.994C119.217 40.9193 118.881 40.882 118.498 40.882C118.153 40.882 117.873 40.9427 117.658 41.064C117.443 41.176 117.336 41.3533 117.336 41.596C117.336 41.7173 117.355 41.8247 117.392 41.918C117.439 42.0113 117.513 42.1 117.616 42.184C117.719 42.2587 117.854 42.338 118.022 42.422C118.19 42.4967 118.395 42.576 118.638 42.66C119.039 42.8093 119.38 42.9587 119.66 43.108C119.94 43.248 120.169 43.4113 120.346 43.598C120.533 43.7753 120.668 43.9807 120.752 44.214C120.836 44.4473 120.878 44.7273 120.878 45.054C120.878 45.754 120.617 46.286 120.094 46.65C119.581 47.0047 118.843 47.182 117.882 47.182C117.238 47.182 116.72 47.126 116.328 47.014C115.936 46.9113 115.661 46.8273 115.502 46.762L115.796 45.348C116.048 45.4507 116.347 45.5487 116.692 45.642C117.047 45.7353 117.448 45.782 117.896 45.782ZM131.244 47.21C130.516 47.21 129.863 47.098 129.284 46.874C128.705 46.65 128.215 46.3233 127.814 45.894C127.413 45.4553 127.105 44.9233 126.89 44.298C126.675 43.6727 126.568 42.954 126.568 42.142C126.568 41.33 126.689 40.6113 126.932 39.986C127.184 39.3607 127.525 38.8333 127.954 38.404C128.383 37.9653 128.887 37.634 129.466 37.41C130.045 37.186 130.665 37.074 131.328 37.074C131.729 37.074 132.093 37.1067 132.42 37.172C132.747 37.228 133.031 37.2933 133.274 37.368C133.517 37.4427 133.717 37.522 133.876 37.606C134.035 37.69 134.147 37.7507 134.212 37.788L133.694 39.23C133.47 39.09 133.148 38.9593 132.728 38.838C132.317 38.7073 131.869 38.642 131.384 38.642C130.964 38.642 130.572 38.7167 130.208 38.866C129.844 39.006 129.527 39.2207 129.256 39.51C128.995 39.7993 128.789 40.1633 128.64 40.602C128.491 41.0407 128.416 41.5493 128.416 42.128C128.416 42.6413 128.472 43.1127 128.584 43.542C128.705 43.9713 128.887 44.3447 129.13 44.662C129.373 44.97 129.681 45.2127 130.054 45.39C130.427 45.558 130.875 45.642 131.398 45.642C132.023 45.642 132.532 45.5813 132.924 45.46C133.316 45.3293 133.619 45.208 133.834 45.096L134.31 46.538C134.198 46.6127 134.044 46.6873 133.848 46.762C133.661 46.8367 133.437 46.9113 133.176 46.986C132.915 47.0513 132.621 47.1027 132.294 47.14C131.967 47.1867 131.617 47.21 131.244 47.21ZM142.78 43.332C142.78 43.9107 142.696 44.438 142.528 44.914C142.36 45.39 142.122 45.796 141.814 46.132C141.506 46.468 141.133 46.7293 140.694 46.916C140.265 47.1027 139.789 47.196 139.266 47.196C138.743 47.196 138.267 47.1027 137.838 46.916C137.409 46.7293 137.04 46.468 136.732 46.132C136.424 45.796 136.181 45.39 136.004 44.914C135.836 44.438 135.752 43.9107 135.752 43.332C135.752 42.7533 135.836 42.2307 136.004 41.764C136.181 41.288 136.424 40.882 136.732 40.546C137.049 40.21 137.423 39.9533 137.852 39.776C138.281 39.5893 138.753 39.496 139.266 39.496C139.779 39.496 140.251 39.5893 140.68 39.776C141.119 39.9533 141.492 40.21 141.8 40.546C142.108 40.882 142.346 41.288 142.514 41.764C142.691 42.2307 142.78 42.7533 142.78 43.332ZM141.044 43.332C141.044 42.604 140.885 42.03 140.568 41.61C140.26 41.1807 139.826 40.966 139.266 40.966C138.706 40.966 138.267 41.1807 137.95 41.61C137.642 42.03 137.488 42.604 137.488 43.332C137.488 44.0693 137.642 44.6527 137.95 45.082C138.267 45.5113 138.706 45.726 139.266 45.726C139.826 45.726 140.26 45.5113 140.568 45.082C140.885 44.6527 141.044 44.0693 141.044 43.332ZM149.257 43.15C149.257 42.3847 149.159 41.834 148.963 41.498C148.776 41.1527 148.422 40.98 147.899 40.98C147.712 40.98 147.507 40.994 147.283 41.022C147.059 41.05 146.891 41.0733 146.779 41.092V47H145.085V39.916C145.412 39.8227 145.836 39.734 146.359 39.65C146.891 39.566 147.451 39.524 148.039 39.524C148.543 39.524 148.954 39.5893 149.271 39.72C149.598 39.8507 149.868 40.0233 150.083 40.238C150.186 40.1633 150.316 40.084 150.475 40C150.634 39.916 150.811 39.8413 151.007 39.776C151.203 39.7013 151.408 39.6407 151.623 39.594C151.847 39.5473 152.071 39.524 152.295 39.524C152.864 39.524 153.331 39.608 153.695 39.776C154.068 39.9347 154.358 40.1633 154.563 40.462C154.778 40.7513 154.922 41.106 154.997 41.526C155.081 41.9367 155.123 42.3893 155.123 42.884V47H153.429V43.15C153.429 42.3847 153.336 41.834 153.149 41.498C152.962 41.1527 152.603 40.98 152.071 40.98C151.8 40.98 151.544 41.0267 151.301 41.12C151.058 41.204 150.876 41.288 150.755 41.372C150.83 41.6053 150.881 41.8527 150.909 42.114C150.937 42.3753 150.951 42.6553 150.951 42.954V47H149.257V43.15ZM159.662 46.076C159.662 46.4027 159.55 46.6687 159.326 46.874C159.112 47.0793 158.85 47.182 158.542 47.182C158.225 47.182 157.959 47.0793 157.744 46.874C157.53 46.6687 157.422 46.4027 157.422 46.076C157.422 45.7493 157.53 45.4833 157.744 45.278C157.959 45.0633 158.225 44.956 158.542 44.956C158.85 44.956 159.112 45.0633 159.326 45.278C159.55 45.4833 159.662 45.7493 159.662 46.076ZM163.941 46.076C163.941 46.4027 163.829 46.6687 163.605 46.874C163.39 47.0793 163.129 47.182 162.821 47.182C162.504 47.182 162.238 47.0793 162.023 46.874C161.808 46.6687 161.701 46.4027 161.701 46.076C161.701 45.7493 161.808 45.4833 162.023 45.278C162.238 45.0633 162.504 44.956 162.821 44.956C163.129 44.956 163.39 45.0633 163.605 45.278C163.829 45.4833 163.941 45.7493 163.941 46.076Z" fill="#989898"></path><path d="M77.82 3.21V7.2H71.55V24H66.87V7.2H60.6V3.21H77.82ZM87.9577 12.18C87.5577 12.08 87.0877 11.98 86.5477 11.88C86.0077 11.76 85.4277 11.7 84.8077 11.7C84.5277 11.7 84.1877 11.73 83.7877 11.79C83.4077 11.83 83.1177 11.88 82.9177 11.94V24H78.4477V9.06C79.2477 8.78 80.1877 8.52 81.2677 8.28C82.3677 8.02 83.5877 7.89 84.9277 7.89C85.1677 7.89 85.4577 7.91 85.7977 7.95C86.1377 7.97 86.4777 8.01 86.8177 8.07C87.1577 8.11 87.4977 8.17 87.8377 8.25C88.1777 8.31 88.4677 8.39 88.7077 8.49L87.9577 12.18ZM96.8409 20.88C97.2809 20.88 97.7009 20.87 98.1009 20.85C98.5009 20.83 98.8209 20.8 99.0609 20.76V17.37C98.8809 17.33 98.6109 17.29 98.2509 17.25C97.8909 17.21 97.5609 17.19 97.2609 17.19C96.8409 17.19 96.4409 17.22 96.0609 17.28C95.7009 17.32 95.3809 17.41 95.1009 17.55C94.8209 17.69 94.6009 17.88 94.4409 18.12C94.2809 18.36 94.2009 18.66 94.2009 19.02C94.2009 19.72 94.4309 20.21 94.8909 20.49C95.3709 20.75 96.0209 20.88 96.8409 20.88ZM96.4809 7.8C97.8009 7.8 98.9009 7.95 99.7809 8.25C100.661 8.55 101.361 8.98 101.881 9.54C102.421 10.1 102.801 10.78 103.021 11.58C103.241 12.38 103.351 13.27 103.351 14.25V23.55C102.711 23.69 101.821 23.85 100.681 24.03C99.5409 24.23 98.1609 24.33 96.5409 24.33C95.5209 24.33 94.5909 24.24 93.7509 24.06C92.9309 23.88 92.2209 23.59 91.6209 23.19C91.0209 22.77 90.5609 22.23 90.2409 21.57C89.9209 20.91 89.7609 20.1 89.7609 19.14C89.7609 18.22 89.9409 17.44 90.3009 16.8C90.6809 16.16 91.1809 15.65 91.8009 15.27C92.4209 14.89 93.1309 14.62 93.9309 14.46C94.7309 14.28 95.5609 14.19 96.4209 14.19C97.0009 14.19 97.5109 14.22 97.9509 14.28C98.4109 14.32 98.7809 14.38 99.0609 14.46V14.04C99.0609 13.28 98.8309 12.67 98.3709 12.21C97.9109 11.75 97.1109 11.52 95.9709 11.52C95.2109 11.52 94.4609 11.58 93.7209 11.7C92.9809 11.8 92.3409 11.95 91.8009 12.15L91.2309 8.55C91.4909 8.47 91.8109 8.39 92.1909 8.31C92.5909 8.21 93.0209 8.13 93.4809 8.07C93.9409 7.99 94.4209 7.93 94.9209 7.89C95.4409 7.83 95.9609 7.8 96.4809 7.8ZM107.393 8.76C108.153 8.54 109.133 8.34 110.333 8.16C111.533 7.96 112.793 7.86 114.113 7.86C115.453 7.86 116.563 8.04 117.443 8.4C118.343 8.74 119.053 9.23 119.573 9.87C120.093 10.51 120.463 11.27 120.683 12.15C120.903 13.03 121.013 14.01 121.013 15.09V24H116.543V15.63C116.543 14.19 116.353 13.17 115.973 12.57C115.593 11.97 114.883 11.67 113.843 11.67C113.523 11.67 113.183 11.69 112.823 11.73C112.463 11.75 112.143 11.78 111.863 11.82V24H107.393V8.76ZM129.589 20.79C130.409 20.79 130.989 20.71 131.329 20.55C131.669 20.39 131.839 20.08 131.839 19.62C131.839 19.26 131.619 18.95 131.179 18.69C130.739 18.41 130.069 18.1 129.169 17.76C128.469 17.5 127.829 17.23 127.249 16.95C126.689 16.67 126.209 16.34 125.809 15.96C125.409 15.56 125.099 15.09 124.879 14.55C124.659 14.01 124.549 13.36 124.549 12.6C124.549 11.12 125.099 9.95 126.199 9.09C127.299 8.23 128.809 7.8 130.729 7.8C131.689 7.8 132.609 7.89 133.489 8.07C134.369 8.23 135.069 8.41 135.589 8.61L134.809 12.09C134.289 11.91 133.719 11.75 133.099 11.61C132.499 11.47 131.819 11.4 131.059 11.4C129.659 11.4 128.959 11.79 128.959 12.57C128.959 12.75 128.989 12.91 129.049 13.05C129.109 13.19 129.229 13.33 129.409 13.47C129.589 13.59 129.829 13.73 130.129 13.89C130.449 14.03 130.849 14.19 131.329 14.37C132.309 14.73 133.119 15.09 133.759 15.45C134.399 15.79 134.899 16.17 135.259 16.59C135.639 16.99 135.899 17.44 136.039 17.94C136.199 18.44 136.279 19.02 136.279 19.68C136.279 21.24 135.689 22.42 134.509 23.22C133.349 24.02 131.699 24.42 129.559 24.42C128.159 24.42 126.989 24.3 126.049 24.06C125.129 23.82 124.489 23.62 124.129 23.46L124.879 19.83C125.639 20.13 126.419 20.37 127.219 20.55C128.019 20.71 128.809 20.79 129.589 20.79ZM149.73 16.23C149.73 14.85 149.42 13.75 148.8 12.93C148.18 12.09 147.26 11.67 146.04 11.67C145.64 11.67 145.27 11.69 144.93 11.73C144.59 11.75 144.31 11.78 144.09 11.82V19.89C144.37 20.07 144.73 20.22 145.17 20.34C145.63 20.46 146.09 20.52 146.55 20.52C148.67 20.52 149.73 19.09 149.73 16.23ZM154.29 16.11C154.29 17.33 154.14 18.44 153.84 19.44C153.54 20.44 153.1 21.3 152.52 22.02C151.94 22.74 151.22 23.3 150.36 23.7C149.5 24.1 148.51 24.3 147.39 24.3C146.77 24.3 146.19 24.24 145.65 24.12C145.11 24 144.59 23.83 144.09 23.61V29.55H139.62V8.76C140.02 8.64 140.48 8.53 141 8.43C141.52 8.31 142.06 8.21 142.62 8.13C143.2 8.05 143.78 7.99 144.36 7.95C144.96 7.89 145.53 7.86 146.07 7.86C147.37 7.86 148.53 8.06 149.55 8.46C150.57 8.84 151.43 9.39 152.13 10.11C152.83 10.81 153.36 11.67 153.72 12.69C154.1 13.71 154.29 14.85 154.29 16.11ZM162.195 24H157.725V8.22H162.195V24ZM162.615 3.66C162.615 4.48 162.345 5.13 161.805 5.61C161.285 6.07 160.665 6.3 159.945 6.3C159.225 6.3 158.595 6.07 158.055 5.61C157.535 5.13 157.275 4.48 157.275 3.66C157.275 2.84 157.535 2.2 158.055 1.74C158.595 1.26 159.225 1.02 159.945 1.02C160.665 1.02 161.285 1.26 161.805 1.74C162.345 2.2 162.615 2.84 162.615 3.66Z" fill="black"></path><path d="M44.7322 16.2591C25.7781 16.5508 9.15765 23.3526 0.015625 27.9588C0.670277 33.3941 3.11174 38.4992 6.93953 42.4298C23.5369 24.3583 44.7322 16.2591 44.7322 16.2591Z" fill="#FF131D"></path><path d="M7.14797 37.0867C5.67693 34.9295 4.59868 32.5036 3.99023 29.9625C7.95665 28.0816 13.3941 25.7862 19.725 23.8823C21.7506 23.2759 23.7607 22.7308 25.7632 22.2548C20.1717 25.84 13.4711 30.7762 7.14797 37.0867Z" fill="#FF131D"></path><path d="M49.4613 19.8519C35.4133 26.1163 22.6591 35.2672 12.2617 46.5753C13.571 47.3354 14.9727 47.9956 16.4515 48.5253C19.2087 49.5079 22.0199 49.9839 24.7925 49.9993C29.4983 47.4659 34.4814 44.111 36.3529 40.5566C36.3529 40.5566 34.6893 44.9555 32.0091 48.9706C39.4182 46.7903 45.7183 41.2399 48.5217 33.4324C50.1468 28.9183 50.3856 24.2354 49.4613 19.8519Z" fill="#E00009"></path><path d="M33.3872 1.47368C24.8768 -1.56639 15.8118 0.253046 9.23444 5.49641C14.5641 3.80748 18.7076 3.83818 18.7076 3.83818C10.6208 6.75543 5.04467 11.2234 2.77264 13.2732C2.21811 14.3172 1.7252 15.4227 1.3093 16.5666C0.64695 18.4167 0.21565 20.2976 0 22.1784C14.2637 14.8239 30.5915 11.5075 46.6266 12.4901C43.7616 7.55383 39.1944 3.55414 33.3872 1.47368Z" fill="#E00009"></path></svg>